<svg width="1920" height="900" viewBox="0 0 1920 900" fill="none" xmlns="http://www.w3.org/2000/svg">
<g opacity="0.3">
<path d="M0.999778 371.085C-10.0458 371.035 -18.9599 362.041 -18.9103 350.995L-17.1092 -50.8103L-16.5794 -168.999C-16.5299 -180.045 -7.53553 -188.959 3.51006 -188.91L50.7132 -188.698C65.5185 -188.632 75.1218 -173.061 68.5356 -159.801L49.156 -120.785C46.0532 -114.538 46.4289 -107.126 50.1475 -101.225L80.6869 -52.7627C81.6892 -51.1723 82.9107 -49.731 84.3153 -48.4816L112.998 -22.9694C119.164 -17.4848 128.066 -16.3506 135.41 -20.1137L180.395 -43.1627C188.179 -47.151 197.651 -45.6189 203.781 -39.3802L227.828 -14.9062C234.447 -8.16924 235.451 2.28001 230.236 10.1543L213.407 35.5649C204.624 48.8261 214.086 66.5369 229.991 66.6082L270.476 66.7897C289.141 66.8733 297.528 90.2155 283.184 102.159L269.355 113.673C260.527 121.024 259.692 134.284 267.528 142.685L293.179 170.185C305.134 183.002 295.991 203.905 278.464 203.827L212.342 203.53C201.297 203.481 192.302 212.395 192.253 223.441L192.086 260.676C192.008 278.124 171.187 287.113 158.435 275.203L136.472 254.691L105.651 225.906C94.5638 215.552 76.4361 220.827 72.6371 235.515L54.1102 307.141C52.913 311.769 53.4134 316.673 55.5207 320.965L66.086 342.48C72.629 355.805 62.888 371.362 48.0441 371.296L0.999778 371.085Z" fill="#686F95"/>
<path d="M1.20586 325.085C-9.83972 325.035 -18.7538 316.041 -18.7043 304.995L-17.2138 -27.5137L-16.7857 -123C-16.7362 -134.046 -7.74187 -142.96 3.30371 -142.911L28.5004 -142.798C43.0177 -142.732 52.6314 -127.709 46.608 -114.5L34.0612 -86.9855C31.3774 -81.1001 31.7057 -74.28 34.9424 -68.6796L57.5368 -29.5851C58.462 -27.9843 59.6046 -26.5196 60.9322 -25.2326L79.6945 -7.04451C86.0363 -0.896756 95.6599 0.363039 103.37 -3.94515L130.329 -19.0077C138.477 -23.5603 148.69 -21.8718 154.939 -14.9393L169.318 1.01109C175.233 7.57384 176.142 17.2408 171.552 24.7909L162.197 40.1808C154.116 53.4748 163.641 70.4996 179.198 70.5694L193.898 70.6353C212.143 70.7171 220.76 93.1828 207.25 105.445L204.298 108.124C196.287 115.395 195.51 127.717 202.544 135.937L216.425 152.158C227.557 165.167 218.261 185.238 201.14 185.162L163.308 184.992C152.262 184.943 143.268 193.857 143.218 204.902L143.14 222.395C143.06 240.255 121.39 249.062 108.873 236.322L100.452 227.75L83.3405 210.332C72.3171 199.111 53.2526 204.42 49.6155 219.724L37.434 270.978C36.413 275.274 36.8424 279.787 38.6553 283.814L44.5862 296.986C50.5614 310.257 40.8135 325.262 26.2599 325.197L1.20586 325.085Z" fill="#959BBA" fill-opacity="0.63"/>
<path d="M1.40802 280.074C-9.63756 280.025 -18.5517 271.03 -18.5021 259.985L-17.3155 -4.73425L-16.987 -78.012C-16.9375 -89.0576 -7.94316 -97.9717 3.10243 -97.9222L8.02581 -97.9001C22.1661 -97.8367 31.7769 -83.5194 26.48 -70.4085L19.7206 -53.6775C17.5485 -48.301 17.8167 -42.2464 20.4559 -37.0831L35.8908 -6.8856C36.7034 -5.29586 37.7252 -3.82211 38.9289 -2.50356L48.2905 7.75078C54.8244 14.9077 65.5491 16.3507 73.7422 11.1751L82.9628 5.35055C91.5835 -0.0951466 102.921 1.81653 109.279 9.78793L114.897 16.8308C119.892 23.0924 120.669 31.73 116.872 38.7826L112.001 47.8318C105.547 59.8207 114.191 74.365 127.806 74.426L128.726 74.4302C144.307 74.5 152.163 93.2492 141.285 104.405C135.191 110.655 134.581 120.423 139.851 127.383L145.494 134.837C155.494 148.043 146.024 166.984 129.46 166.909L116.357 166.851C105.855 166.804 97.3038 175.279 97.2567 185.781L97.2376 190.046C97.1656 206.111 77.2294 213.514 66.6895 201.391L62.72 196.825C51.8835 184.361 31.4641 189.66 28.0568 205.821L21.7419 235.774C20.9292 239.628 21.2729 243.637 22.7298 247.296L24.8803 252.699C30.1222 265.867 20.382 280.159 6.20877 280.096L1.40802 280.074Z" fill="#959BBA" fill-opacity="0.63"/>
<path d="M-2.93804 235.054C-11.4723 235.016 -18.3596 228.067 -18.3214 219.532L-17.4554 26.3418L-17.2184 -26.5234C-17.18 -35.0777 -10.2143 -41.9813 -1.65999 -41.9429C9.17876 -41.8943 16.6171 -31.0144 12.7286 -20.8971L9.09046 -11.4314C7.10326 -6.26103 7.34929 -0.498108 9.76993 4.48406L19.3181 24.1361C20.0843 25.7131 21.0545 27.1825 22.2038 28.5065L25.9086 32.7744C31.7505 39.5043 41.6808 40.8502 49.1033 35.9183C56.8993 30.7381 67.3794 32.5127 73.0355 39.9707L73.8711 41.0725C77.8651 46.339 78.4892 53.4281 75.4766 59.3114L72.322 65.4719C67.9203 74.0683 74.1354 84.2847 83.7931 84.328C95.0705 84.3786 100.699 98.0347 93.0316 106.305C88.7822 110.888 88.2788 117.91 91.9302 122.982L93.6938 125.432C101.723 136.586 93.7113 152.139 79.9682 152.078L75.9618 152.06C68.4781 152.026 62.3841 158.066 62.3506 165.549L62.3317 169.773C62.2813 181.012 48.2078 186.04 41.0468 177.378C32.5737 167.127 16 171.295 13.3833 184.334L9.83249 202.027C9.19187 205.219 9.46311 208.527 10.6152 211.572L11.5842 214.134C15.4192 224.27 7.89964 235.103 -2.93804 235.054Z" fill="#959BBA" fill-opacity="0.63"/>
</g>
<g opacity="0.3">
<path d="M12.9998 1137.08C1.95419 1137.04 -6.95986 1128.04 -6.91035 1117L-5.1092 715.19L-4.57939 597.001C-4.52988 585.955 4.46447 577.041 15.5101 577.09L62.7132 577.302C77.5185 577.368 87.1218 592.939 80.5356 606.199L61.156 645.215C58.0532 651.462 58.4289 658.874 62.1475 664.775L92.6869 713.237C93.6892 714.828 94.9107 716.269 96.3153 717.518L124.998 743.031C131.164 748.515 140.066 749.649 147.41 745.886L192.395 722.837C200.179 718.849 209.651 720.381 215.781 726.62L239.828 751.094C246.447 757.831 247.451 768.28 242.236 776.154L225.407 801.565C216.624 814.826 226.086 832.537 241.991 832.608L282.476 832.79C301.141 832.873 309.528 856.215 295.184 868.159L281.355 879.673C272.527 887.024 271.692 900.284 279.528 908.685L305.179 936.185C317.134 949.002 307.991 969.905 290.464 969.827L224.342 969.53C213.297 969.481 204.302 978.395 204.253 989.441L204.086 1026.68C204.008 1044.12 183.187 1053.11 170.435 1041.2L148.472 1020.69L117.651 991.906C106.564 981.552 88.4361 986.827 84.6371 1001.51L66.1102 1073.14C64.913 1077.77 65.4134 1082.67 67.5207 1086.96L78.086 1108.48C84.629 1121.8 74.888 1137.36 60.0441 1137.3L12.9998 1137.08Z" fill="#686F95"/>
<path d="M13.2059 1091.09C2.16028 1091.04 -6.75381 1082.04 -6.70429 1071L-5.21377 738.487L-4.78574 643.001C-4.73623 631.955 4.25813 623.041 15.3037 623.09L40.5004 623.203C55.0177 623.268 64.6314 638.292 58.608 651.501L46.0612 679.015C43.3774 684.901 43.7057 691.721 46.9424 697.321L69.5368 736.416C70.462 738.017 71.6046 739.481 72.9322 740.768L91.6945 758.956C98.0363 765.104 107.66 766.364 115.37 762.056L142.329 746.993C150.477 742.441 160.69 744.129 166.939 751.062L181.318 767.012C187.233 773.575 188.142 783.242 183.552 790.792L174.197 806.182C166.116 819.476 175.641 836.501 191.198 836.57L205.898 836.636C224.143 836.718 232.76 859.184 219.25 871.446L216.298 874.125C208.287 881.396 207.51 893.718 214.544 901.938L228.425 918.159C239.557 931.168 230.261 951.239 213.14 951.163L175.308 950.993C164.262 950.944 155.268 959.858 155.218 970.903L155.14 988.396C155.06 1006.26 133.39 1015.06 120.873 1002.32L112.452 993.751L95.3405 976.333C84.3171 965.112 65.2526 970.421 61.6155 985.725L49.434 1036.98C48.413 1041.28 48.8424 1045.79 50.6553 1049.81L56.5862 1062.99C62.5614 1076.26 52.8135 1091.26 38.2599 1091.2L13.2059 1091.09Z" fill="#959BBA" fill-opacity="0.63"/>
<path d="M13.408 1046.07C2.36244 1046.02 -6.55166 1037.02 -6.50214 1025.98L-5.3155 761.259L-4.98703 687.982C-4.93751 676.936 4.05684 668.022 15.1024 668.071L20.0258 668.094C34.1661 668.157 43.7769 682.474 38.48 695.585L31.7206 712.316C29.5485 717.693 29.8167 723.747 32.4559 728.911L47.8908 759.108C48.7034 760.698 49.7252 762.172 50.9289 763.49L60.2905 773.744C66.8244 780.901 77.5491 782.344 85.7422 777.169L94.9628 771.344C103.584 765.899 114.921 767.81 121.279 775.782L126.897 782.824C131.892 789.086 132.669 797.724 128.872 804.776L124.001 813.825C117.547 825.814 126.191 840.359 139.806 840.42L140.726 840.424C156.307 840.494 164.163 859.243 153.285 870.398C147.191 876.649 146.581 886.417 151.851 893.377L157.494 900.83C167.494 914.036 158.024 932.977 141.46 932.903L128.357 932.844C117.855 932.797 109.304 941.273 109.257 951.774L109.238 956.04C109.166 972.104 89.2294 979.508 78.6895 967.385L74.72 962.819C63.8835 950.354 43.4641 955.654 40.0568 971.815L33.7419 1001.77C32.9292 1005.62 33.2729 1009.63 34.7298 1013.29L36.8803 1018.69C42.1222 1031.86 32.382 1046.15 18.2088 1046.09L13.408 1046.07Z" fill="#959BBA" fill-opacity="0.63"/>
<path d="M9.06196 1001.05C0.527732 1001.01 -6.35961 994.06 -6.32136 985.526L-5.45535 792.335L-5.21838 739.47C-5.18003 730.916 1.78569 724.012 10.34 724.051C21.1788 724.099 28.6171 734.979 24.7286 745.097L21.0905 754.562C19.1033 759.733 19.3493 765.496 21.7699 770.478L31.3181 790.13C32.0843 791.707 33.0545 793.176 34.2038 794.5L37.9086 798.768C43.7505 805.498 53.6808 806.844 61.1033 801.912C68.8993 796.732 79.3794 798.506 85.0355 805.964L85.8711 807.066C89.8651 812.333 90.4892 819.422 87.4766 825.305L84.322 831.466C79.9203 840.062 86.1354 850.278 95.7931 850.322C107.071 850.372 112.699 864.028 105.032 872.298C100.782 876.881 100.279 883.904 103.93 888.976L105.694 891.426C113.723 902.58 105.711 918.133 91.9682 918.071L87.9618 918.053C80.4781 918.02 74.3841 924.059 74.3506 931.543L74.3317 935.767C74.2813 947.006 60.2078 952.034 53.0468 943.371C44.5737 933.121 28 937.289 25.3833 950.328L21.8325 968.021C21.1919 971.213 21.4631 974.521 22.6152 977.566L23.5842 980.127C27.4192 990.264 19.8996 1001.1 9.06196 1001.05Z" fill="#959BBA" fill-opacity="0.63"/>
</g>
<g opacity="0.3">
<path d="M1919.51 553.448C1930.55 553.497 1939.47 562.492 1939.42 573.537L1937.62 975.343L1937.09 1093.53C1937.04 1104.58 1928.04 1113.49 1917 1113.44L1869.79 1113.23C1854.99 1113.16 1845.39 1097.59 1851.97 1084.33L1871.35 1045.32C1874.45 1039.07 1874.08 1031.66 1870.36 1025.76L1839.82 977.295C1838.82 975.705 1837.6 974.264 1836.19 973.014L1807.51 947.502C1801.34 942.018 1792.44 940.883 1785.1 944.646L1740.11 967.695C1732.33 971.684 1722.86 970.152 1716.73 963.913L1692.68 939.439C1686.06 932.702 1685.06 922.253 1690.27 914.378L1707.1 888.968C1715.88 875.707 1706.42 857.996 1690.52 857.925L1650.03 857.743C1631.37 857.659 1622.98 834.317 1637.32 822.374L1651.15 810.859C1659.98 803.508 1660.82 790.249 1652.98 781.848L1627.33 754.348C1615.37 741.53 1624.52 720.627 1642.04 720.706L1708.16 721.002C1719.21 721.052 1728.2 712.138 1728.25 701.092L1728.42 663.856C1728.5 646.408 1749.32 637.42 1762.07 649.329L1784.04 669.842L1814.86 698.626C1825.94 708.981 1844.07 703.705 1847.87 689.018L1866.4 617.392C1867.59 612.764 1867.09 607.859 1864.99 603.568L1854.42 582.052C1847.88 568.728 1857.62 553.171 1872.46 553.237L1919.51 553.448Z" fill="#686F95"/>
<path d="M1919.3 599.447C1930.35 599.497 1939.26 608.491 1939.21 619.537L1937.72 952.046L1937.29 1047.53C1937.24 1058.58 1928.25 1067.49 1917.2 1067.44L1892.01 1067.33C1877.49 1067.26 1867.88 1052.24 1873.9 1039.03L1886.45 1011.52C1889.13 1005.63 1888.8 998.812 1885.56 993.212L1862.97 954.117C1862.04 952.517 1860.9 951.052 1859.57 949.765L1840.81 931.577C1834.47 925.429 1824.85 924.169 1817.14 928.477L1790.18 943.54C1782.03 948.092 1771.82 946.404 1765.57 939.471L1751.19 923.521C1745.27 916.958 1744.36 907.291 1748.95 899.741L1758.31 884.351C1766.39 871.057 1756.87 854.033 1741.31 853.963L1726.61 853.897C1708.36 853.815 1699.75 831.349 1713.26 819.088L1716.21 816.408C1724.22 809.138 1725 796.815 1717.96 788.595L1704.08 772.374C1692.95 759.365 1702.25 739.294 1719.37 739.37L1757.2 739.54C1768.24 739.59 1777.24 730.676 1777.29 719.63L1777.37 702.137C1777.45 684.277 1799.12 675.47 1811.63 688.211L1820.05 696.782L1837.17 714.2C1848.19 725.421 1867.25 720.112 1870.89 704.808L1883.07 653.554C1884.09 649.258 1883.66 644.745 1881.85 640.718L1875.92 627.546C1869.95 614.276 1879.69 599.27 1894.25 599.335L1919.3 599.447Z" fill="#959BBA" fill-opacity="0.63"/>
<path d="M1919.1 644.457C1930.14 644.506 1939.06 653.501 1939.01 664.546L1937.82 929.265L1937.49 1002.54C1937.44 1013.59 1928.45 1022.5 1917.4 1022.45L1912.48 1022.43C1898.34 1022.37 1888.73 1008.05 1894.03 994.939L1900.79 978.208C1902.96 972.832 1902.69 966.777 1900.05 961.614L1884.62 931.416C1883.8 929.827 1882.78 928.353 1881.58 927.034L1872.22 916.78C1865.68 909.623 1854.96 908.18 1846.76 913.356L1837.54 919.18C1828.92 924.626 1817.58 922.714 1811.23 914.743L1805.61 907.7C1800.61 901.438 1799.84 892.801 1803.63 885.748L1808.51 876.699C1814.96 864.71 1806.32 850.166 1792.7 850.105L1791.78 850.101C1776.2 850.031 1768.34 831.282 1779.22 820.126C1785.32 813.875 1785.93 804.108 1780.65 797.148L1775.01 789.694C1765.01 776.488 1774.48 757.547 1791.05 757.621L1804.15 757.68C1814.65 757.727 1823.2 749.252 1823.25 738.75L1823.27 734.484C1823.34 718.42 1843.28 711.017 1853.82 723.14L1857.79 727.706C1868.62 740.17 1889.04 734.871 1892.45 718.71L1898.76 688.757C1899.58 684.903 1899.23 680.894 1897.78 677.234L1895.63 671.832C1890.38 658.663 1900.12 644.372 1914.3 644.435L1919.1 644.457Z" fill="#959BBA" fill-opacity="0.63"/>
<path d="M1923.44 689.477C1931.98 689.515 1938.87 696.464 1938.83 704.998L1937.96 898.189L1937.72 951.054C1937.69 959.608 1930.72 966.512 1922.17 966.474C1911.33 966.425 1903.89 955.545 1907.78 945.428L1911.42 935.962C1913.4 930.792 1913.16 925.029 1910.74 920.047L1901.19 900.395C1900.42 898.818 1899.45 897.348 1898.3 896.024L1894.6 891.756C1888.76 885.027 1878.83 883.681 1871.4 888.613C1863.61 893.793 1853.13 892.018 1847.47 884.56L1846.63 883.458C1842.64 878.192 1842.02 871.103 1845.03 865.219L1848.18 859.059C1852.59 850.463 1846.37 840.246 1836.71 840.203C1825.44 840.152 1819.81 826.496 1827.47 818.226C1831.72 813.643 1832.23 806.621 1828.58 801.548L1826.81 799.099C1818.78 787.945 1826.79 772.392 1840.54 772.453L1844.54 772.471C1852.03 772.505 1858.12 766.465 1858.16 758.981L1858.17 754.758C1858.22 743.518 1872.3 738.49 1879.46 747.153C1887.93 757.404 1904.51 753.236 1907.12 740.197L1910.67 722.504C1911.31 719.312 1911.04 716.004 1909.89 712.959L1908.92 710.397C1905.09 700.261 1912.61 689.428 1923.44 689.477Z" fill="#959BBA" fill-opacity="0.63"/>
</g>
<g opacity="0.3">
<path d="M1907.51 -212.552C1918.55 -212.503 1927.47 -203.508 1927.42 -192.463L1925.62 209.343L1925.09 327.532C1925.04 338.578 1916.04 347.492 1905 347.442L1857.79 347.231C1842.99 347.164 1833.39 331.594 1839.97 318.334L1859.35 279.318C1862.45 273.071 1862.08 265.659 1858.36 259.758L1827.82 211.295C1826.82 209.705 1825.6 208.264 1824.19 207.014L1795.51 181.502C1789.34 176.018 1780.44 174.883 1773.1 178.646L1728.11 201.695C1720.33 205.684 1710.86 204.152 1704.73 197.913L1680.68 173.439C1674.06 166.702 1673.06 156.253 1678.27 148.378L1695.1 122.968C1703.88 109.707 1694.42 91.9958 1678.52 91.9245L1638.03 91.743C1619.37 91.6594 1610.98 68.3173 1625.32 56.3737L1639.15 44.8592C1647.98 37.5084 1648.82 24.2485 1640.98 15.8478L1615.33 -11.6524C1603.37 -24.4697 1612.52 -45.3727 1630.04 -45.2941L1696.16 -44.9977C1707.21 -44.9482 1716.2 -53.8623 1716.25 -64.9079L1716.42 -102.144C1716.5 -119.592 1737.32 -128.58 1750.07 -116.671L1772.04 -96.1582L1802.86 -67.3736C1813.94 -57.0188 1832.07 -62.2947 1835.87 -76.9818L1854.4 -148.608C1855.59 -153.236 1855.09 -158.141 1852.99 -162.432L1842.42 -183.948C1835.88 -197.272 1845.62 -212.829 1860.46 -212.763L1907.51 -212.552Z" fill="#686F95"/>
<path d="M1907.3 -166.553C1918.35 -166.504 1927.26 -157.509 1927.21 -146.464L1925.72 186.045L1925.29 281.532C1925.24 292.578 1916.25 301.492 1905.2 301.442L1880.01 301.329C1865.49 301.264 1855.88 286.24 1861.9 273.031L1874.45 245.517C1877.13 239.632 1876.8 232.812 1873.56 227.211L1850.97 188.117C1850.04 186.516 1848.9 185.051 1847.57 183.764L1828.81 165.576C1822.47 159.428 1812.85 158.169 1805.14 162.477L1778.18 177.539C1770.03 182.092 1759.82 180.404 1753.57 173.471L1739.19 157.521C1733.27 150.958 1732.36 141.291 1736.95 133.741L1746.31 118.351C1754.39 105.057 1744.87 88.0321 1729.31 87.9624L1714.61 87.8965C1696.36 87.8147 1687.75 65.3489 1701.26 53.0871L1704.21 50.4078C1712.22 43.137 1713 30.8144 1705.96 22.5948L1692.08 6.37324C1680.95 -6.6355 1690.25 -26.7067 1707.37 -26.63L1745.2 -26.4604C1756.24 -26.4109 1765.24 -35.325 1765.29 -46.3706L1765.37 -63.8635C1765.45 -81.7238 1787.12 -90.5307 1799.63 -77.79L1808.05 -69.2184L1825.17 -51.8004C1836.19 -40.5796 1855.25 -45.8886 1858.89 -61.192L1871.07 -112.446C1872.09 -116.742 1871.66 -121.256 1869.85 -125.282L1863.92 -138.454C1857.95 -151.725 1867.69 -166.731 1882.25 -166.665L1907.3 -166.553Z" fill="#959BBA" fill-opacity="0.63"/>
<path d="M1907.1 -121.542C1918.14 -121.492 1927.06 -112.498 1927.01 -101.452L1925.82 163.266L1925.49 236.544C1925.44 247.59 1916.45 256.504 1905.4 256.454L1900.48 256.432C1886.34 256.369 1876.73 242.052 1882.03 228.941L1888.79 212.21C1890.96 206.833 1890.69 200.779 1888.05 195.615L1872.62 165.418C1871.8 163.828 1870.78 162.354 1869.58 161.036L1860.22 150.781C1853.68 143.625 1842.96 142.182 1834.76 147.357L1825.54 153.182C1816.92 158.627 1805.59 156.716 1799.23 148.744L1793.61 141.701C1788.62 135.44 1787.84 126.802 1791.63 119.75L1796.51 110.7C1802.96 98.7116 1794.32 84.1672 1780.7 84.1062L1779.78 84.1021C1764.2 84.0322 1756.34 65.283 1767.22 54.1275C1773.32 47.8768 1773.93 38.1094 1768.66 31.1491L1763.01 23.6956C1753.01 10.4896 1762.48 -8.45142 1779.05 -8.37717L1792.15 -8.31843C1802.65 -8.27136 1811.2 -16.7467 1811.25 -27.2486L1811.27 -31.5141C1811.34 -47.5783 1831.28 -54.9819 1841.82 -42.8586L1845.79 -38.2928C1856.62 -25.8283 1877.04 -31.1277 1880.45 -47.289L1886.77 -77.2414C1887.58 -81.0958 1887.23 -85.1044 1885.78 -88.7642L1883.63 -94.1667C1878.38 -107.335 1888.13 -121.627 1902.3 -121.563L1907.1 -121.542Z" fill="#959BBA" fill-opacity="0.63"/>
<path d="M1911.45 -76.5219C1919.98 -76.4836 1926.87 -69.5343 1926.83 -61.0001L1925.96 132.19L1925.73 185.056C1925.69 193.61 1918.72 200.513 1910.17 200.475C1899.33 200.427 1891.89 189.547 1895.78 179.429L1899.42 169.964C1901.4 164.793 1901.16 159.03 1898.74 154.048L1889.19 134.396C1888.42 132.819 1887.45 131.35 1886.3 130.026L1882.6 125.758C1876.76 119.028 1866.83 117.682 1859.4 122.614C1851.61 127.794 1841.13 126.02 1835.47 118.562L1834.64 117.46C1830.64 112.193 1830.02 105.104 1833.03 99.2208L1836.19 93.0603C1840.59 84.464 1834.37 74.2475 1824.71 74.2042C1813.44 74.1537 1807.81 60.4975 1815.48 52.2277C1819.72 47.6446 1820.23 40.6222 1816.58 35.5498L1814.81 33.1C1806.78 21.9463 1814.8 6.39301 1828.54 6.45461L1832.55 6.47257C1840.03 6.50612 1846.12 0.466555 1846.16 -7.01717L1846.18 -11.2407C1846.23 -22.4801 1860.3 -27.5082 1867.46 -18.8453C1875.93 -8.59501 1892.51 -12.7627 1895.12 -25.8017L1898.67 -43.4947C1899.32 -46.6869 1899.04 -49.9949 1897.89 -53.04L1896.92 -55.6014C1893.09 -65.738 1900.61 -76.5705 1911.45 -76.5219Z" fill="#959BBA" fill-opacity="0.63"/>
</g>
</svg>
