<svg width="1248" height="900" viewBox="0 0 1248 900" fill="none" xmlns="http://www.w3.org/2000/svg">
<path d="M176.682 572.446C211.194 760.923 375.865 900.109 570.098 900.109H332.949C296.999 900.109 261.863 889.405 232.02 869.36C171.786 828.903 141.532 756.387 155.151 685.118L176.682 572.446ZM1091.98 685.118C1105.6 756.387 1075.35 828.903 1015.12 869.36C985.272 889.405 950.136 900.109 914.185 900.109H677.036C871.269 900.109 1035.94 760.923 1070.45 572.445L1091.98 685.118ZM608.6 43.2974L606.352 43.3032C415.35 44.3632 251.599 180.403 215.709 368.217L176.682 572.446C175.022 563.385 173.663 554.209 172.617 544.93L139.188 248.487C134.959 210.981 142.334 173.08 160.317 139.896C192.575 80.3737 254.84 43.2974 322.541 43.2974H608.6ZM924.594 43.2974C992.295 43.2974 1054.56 80.3737 1086.82 139.896C1104.8 173.08 1112.17 210.981 1107.95 248.487L1074.52 544.93C1073.47 554.209 1072.11 563.384 1070.45 572.445L1031.42 368.217C995.393 179.666 830.497 43.2974 638.534 43.2974H924.594Z" fill="#959BBA" fill-opacity="0.2"/>
<path d="M197.729 295.434C132.65 475.684 196.935 685.639 354.887 795.084L161.022 660.755C132.474 640.974 109.66 613.037 95.303 580.276C64.554 510.111 76.8327 428.274 126.257 373.967L197.729 295.434ZM912.014 918.417C886.513 989.3 822.349 1035.19 750.26 1034.09C716.601 1033.59 683.524 1022.8 654.976 1003.02L461.111 868.686C619.063 978.131 823.305 954.238 948.891 815.914L912.014 918.417ZM1097.1 290.263C1151.17 327.729 1182.88 392.669 1180.1 460.246C1178.47 500.081 1164.91 537.978 1141.41 568.441L969.046 791.841C962.584 800.216 955.858 808.241 948.891 815.914L1017.37 625.582C1082.76 443.82 1016.95 234.728 860.165 126.09L1097.1 290.263ZM818.107 96.9481L816.267 95.6805C659.726 -11.5157 456.684 10.9011 330.442 149.614L197.729 295.434C201.34 285.435 205.346 275.526 209.759 265.732L327.469 4.46341C343.521 -31.1642 369.978 -60.1193 403.005 -78.2048C459.033 -108.885 527.1 -104.69 581.171 -67.2241L818.107 96.9481Z" fill="#959BBA" fill-opacity="0.2"/>
<path d="M325.086 101.236C188.96 230.742 151.063 441.685 238.521 608.992L130.254 401.878C115.06 372.812 107.788 339.672 109.219 306.012C112.586 226.791 163.232 156.939 235.282 132.143L325.086 101.236ZM691.6 1005.08C634.488 1058.45 552.708 1068.74 488.041 1030.69C460.563 1014.53 438.019 990.63 422.825 961.564L314.558 754.45C402.017 921.757 589.233 996.462 762.785 938.553L691.6 1005.08ZM1125.25 557.541C1154.29 613.093 1153.2 681.566 1122.38 738.107C1102.51 774.548 1071.76 803.235 1035.13 819.511L797.83 924.95C786.235 930.102 774.541 934.63 762.785 938.553L900.678 809.692C1040.31 679.205 1077.62 466.42 990.195 299.175L1125.25 557.541ZM950.998 224.19L949.968 222.235C862.099 56.3524 674.507 -19.0184 499.043 41.3684L325.086 101.236C334.306 92.4643 343.976 84.0647 354.09 76.0788L561.071 -87.36C593.024 -112.591 631.774 -125.963 671.034 -125.306C731.949 -124.286 786.899 -89.7283 815.939 -34.1756L950.998 224.19Z" fill="#959BBA" fill-opacity="0.2"/>
<path d="M511.743 -3.23236C335.317 48.1324 213.489 214.637 221.821 401.467L229.933 583.341C229.928 583.23 229.922 583.118 229.917 583.006L211.459 169.146C210.041 137.365 217.048 105.714 231.769 77.4034C268.128 7.48198 345.358 -31.175 422.729 -18.1811L511.743 -3.23236ZM467.249 980.025C391.391 1000.93 311.076 970.409 268.662 904.555C251.489 877.891 241.697 847.108 240.28 815.327L229.933 583.341C238.414 770.019 374.446 923.041 554.524 955.972L467.249 980.025ZM1019 400.437L1018.9 398.242C1009.57 211.78 872.438 57.3441 688.394 26.4351L511.743 -3.23236C524.845 -7.04691 538.247 -10.227 551.921 -12.7327L797.962 -57.8213C838.542 -65.2578 880.346 -58.3422 916.195 -38.2629C969.316 -8.50854 1003.22 46.6019 1005.94 107.622L1019 400.437ZM1036.59 794.709C1039.31 855.729 1010.46 914.08 960.234 949.171C926.337 972.851 885.342 984.041 844.286 980.82L595.363 961.29C581.529 960.205 567.905 958.419 554.524 955.972L727.723 908.241C908.878 858.316 1031.89 689.339 1023.53 501.894L1036.59 794.709Z" fill="#959BBA" fill-opacity="0.63"/>
</svg>
